<svg width="18" height="9" viewBox="0 0 18 9" fill="none" xmlns="http://www.w3.org/2000/svg">
<path d="M17.7764 4.44325C17.7762 4.44306 17.776 4.44283 17.7757 4.44264L14.2516 1.05685C13.9876 0.80321 13.5605 0.804153 13.2977 1.05906C13.035 1.31394 13.036 1.72619 13.3 1.97987L15.6661 4.25303H1.38258C1.01008 4.25303 0.70813 4.54453 0.70813 4.90414C0.70813 5.26375 1.01008 5.55526 1.38258 5.55526H15.6661L13.3 7.82842C13.036 8.08209 13.035 8.49435 13.2978 8.74922C13.5606 9.00417 13.9876 9.00505 14.2516 8.75144L17.7758 5.36565C17.776 5.36546 17.7762 5.36523 17.7764 5.36503C18.0405 5.11051 18.0397 4.69693 17.7764 4.44325Z" fill="black"/>
</svg>
