<svg width="19" height="9" viewBox="0 0 19 9" xmlns="http://www.w3.org/2000/svg">
   <path
      d="M1.17939 3.5762C1.17959 3.576 1.17976 3.57577 1.18 3.57558L4.70416 0.189612C4.96818 -0.0640424 5.39521 -0.0630985 5.65801 0.191826C5.92078 0.446717 5.91976 0.858991 5.65575 1.11268L3.28963 3.38596H17.5732C17.9457 3.38596 18.2476 3.67748 18.2476 4.03711C18.2476 4.39674 17.9457 4.68826 17.5732 4.68826H3.28966L5.65572 6.96154C5.91973 7.21523 5.92074 7.6275 5.65798 7.88239C5.39517 8.13735 4.96811 8.13823 4.70413 7.88461L1.17997 4.49864C1.17976 4.49845 1.17959 4.49822 1.17936 4.49802C0.915209 4.24349 0.916052 3.82988 1.17939 3.5762Z" />
</svg>
