<?xml version="1.0" encoding="utf-8"?><svg viewBox="0 0 19 9" xmlns="http://www.w3.org/2000/svg" xmlns:xlink="http://www.w3.org/1999/xlink"><style>:root>svg{display:none}:root>svg:target{display:block}</style><svg viewBox="0 0 19 9" id="arrow-left" xmlns="http://www.w3.org/2000/svg"><path d="M1.18 3.576L4.704.19a.692.692 0 01.954.002.635.635 0 01-.002.92L3.29 3.387h14.283c.373 0 .675.291.675.651 0 .36-.302.651-.675.651H3.29l2.366 2.274a.635.635 0 01.002.92.692.692 0 01-.954.003L1.18 4.499v-.001a.636.636 0 010-.922z"/></svg><svg viewBox="0 0 18 9" id="arrow-right" xmlns="http://www.w3.org/2000/svg"><path d="M17.776 4.443l-3.524-3.386a.692.692 0 00-.954.002.635.635 0 00.002.92l2.366 2.274H1.383a.663.663 0 00-.675.651c0 .36.302.651.675.651h14.283L13.3 7.828a.635.635 0 00-.002.921c.263.255.69.256.954.002l3.524-3.385v-.001a.636.636 0 000-.922z"/></svg></svg>